<svg width="32" height="26" viewBox="0 0 32 26" fill="none" xmlns="http://www.w3.org/2000/svg">
<path id="Vector" d="M5.3116 6.79452C5.3116 5.17779 5.95385 3.62728 7.09705 2.48408C8.24025 1.34088 9.79076 0.698631 11.4075 0.698631C13.0242 0.698631 14.5747 1.34088 15.7179 2.48408C16.8611 3.62728 17.5034 5.17779 17.5034 6.79452C17.5034 8.41125 16.8611 9.96177 15.7179 11.105C14.5747 12.2482 13.0242 12.8904 11.4075 12.8904C9.79076 12.8904 8.24025 12.2482 7.09705 11.105C5.95385 9.96177 5.3116 8.41125 5.3116 6.79452ZM0.739685 23.6678C0.739685 18.9768 4.54009 15.1764 9.23107 15.1764H13.5839C18.2749 15.1764 22.0753 18.9768 22.0753 23.6678C22.0753 24.4488 21.4419 25.0822 20.6609 25.0822H2.15412C1.37309 25.0822 0.739685 24.4488 0.739685 23.6678ZM24.7423 15.5574V12.5094H21.6943C21.0609 12.5094 20.5513 11.9998 20.5513 11.3664C20.5513 10.733 21.0609 10.2235 21.6943 10.2235H24.7423V7.17552C24.7423 6.54211 25.2518 6.03254 25.8852 6.03254C26.5186 6.03254 27.0282 6.54211 27.0282 7.17552V10.2235H30.0762C30.7096 10.2235 31.2191 10.733 31.2191 11.3664C31.2191 11.9998 30.7096 12.5094 30.0762 12.5094H27.0282V15.5574C27.0282 16.1908 26.5186 16.7003 25.8852 16.7003C25.2518 16.7003 24.7423 16.1908 24.7423 15.5574Z" fill="#01438F"/>
</svg>
