<svg width="155" height="165" viewBox="0 0 155 165" fill="none" xmlns="http://www.w3.org/2000/svg">
<path d="M77.4564 0.924072C63.0423 0.924072 48.6282 1.33334 35.1751 2.35651C26.6365 2.94717 18.5816 6.78509 12.4785 13.1707C6.37545 19.5563 2.63061 28.0644 1.92661 37.1442C0.389107 59.04 0.196919 80.7311 1.54223 102.627C2.27896 112.358 6.46009 121.427 13.2395 128C20.0188 134.572 28.8901 138.157 38.0579 138.028H58.2376V111.426H38.0579C32.1001 111.631 26.911 107.129 26.3344 100.785C25.1813 80.3218 25.3735 59.8585 26.7188 39.3951C27.1032 33.6654 31.3313 29.3681 36.7126 28.9588C49.7813 27.9357 63.6189 27.5264 77.4564 27.5264C91.2939 27.5264 105.131 28.1403 118.2 28.7542C123.389 29.1635 127.81 33.4608 128.194 39.1905C129.731 59.6539 129.731 80.1172 128.578 100.581C127.81 106.924 122.813 111.631 116.855 111.426H96.6751L58.2376 138.028V164.631L96.6751 138.028H116.855C135.881 138.233 151.833 122.681 153.371 102.627C154.716 80.9357 154.524 59.04 153.178 37.3488C152.474 28.2691 148.729 19.761 142.626 13.3753C136.523 6.98972 128.468 3.1518 119.93 2.56114C106.285 1.33334 91.8704 0.924072 77.4564 0.924072ZM45.1688 60.677C42.8626 60.677 40.9407 62.7234 40.9407 65.179V81.1404C40.9407 83.3913 42.0938 85.4377 44.0157 86.4608C54.3938 91.7813 65.9251 94.6462 77.4564 95.0554C88.9876 94.6462 100.519 91.7813 110.897 86.4608C112.819 85.4377 113.972 83.3913 113.972 81.1404V65.179C113.972 64.5651 113.78 64.1558 113.395 63.7465C113.194 63.185 112.887 62.6732 112.493 62.2424C112.099 61.8116 111.627 61.4709 111.105 61.2411C110.584 61.0112 110.023 60.8971 109.459 60.9056C108.894 60.9142 108.337 61.0453 107.822 61.2909C98.2126 65.7929 87.8345 68.2485 77.2642 68.4531C66.6939 68.2485 56.3157 65.5882 46.7063 61.0863C46.2284 60.8308 45.7034 60.6911 45.1688 60.677Z" fill="#01438F"/>
</svg>
