<svg width="158" height="154" viewBox="0 0 158 154" fill="none" xmlns="http://www.w3.org/2000/svg">
<path d="M107.145 16.1636C107.145 7.74782 113.893 1 122.309 1C130.725 1 137.473 7.74782 137.473 16.1636C137.473 24.5795 130.725 31.3273 122.309 31.3273C113.893 31.3273 107.145 24.5795 107.145 16.1636ZM137.473 152.636V107.145H156.427L137.169 49.2962C136.155 46.2764 134.22 43.6504 131.636 41.7873C129.052 39.9242 125.95 38.9176 122.764 38.9091H121.854C118.666 38.9062 115.558 39.9083 112.972 41.7731C110.386 43.6378 108.453 46.2702 107.449 49.2962L100.928 68.8573C109.117 73.4064 114.727 81.9738 114.727 91.9818V152.636H137.473ZM80.6091 73.0273C86.902 73.0273 91.9818 67.9475 91.9818 61.6545C91.9818 55.3616 86.902 50.2818 80.6091 50.2818C74.3162 50.2818 69.2364 55.3616 69.2364 61.6545C69.2364 67.9475 74.3162 73.0273 80.6091 73.0273ZM27.5364 31.3273C35.9522 31.3273 42.7 24.5795 42.7 16.1636C42.7 7.74782 35.9522 1 27.5364 1C19.1205 1 12.3727 7.74782 12.3727 16.1636C12.3727 24.5795 19.1205 31.3273 27.5364 31.3273ZM42.7 152.636V99.5636H54.0727V54.0727C54.0727 45.7327 47.2491 38.9091 38.9091 38.9091H16.1636C7.82364 38.9091 1 45.7327 1 54.0727V99.5636H12.3727V152.636H42.7ZM91.9818 152.636V122.309H99.5636V91.9818C99.5636 85.7647 94.408 80.6091 88.1909 80.6091H73.0273C66.8102 80.6091 61.6545 85.7647 61.6545 91.9818V122.309H69.2364V152.636H91.9818Z" fill="white" stroke="#01438F"/>
</svg>
