<svg width="52" height="52" viewBox="0 0 52 52" fill="none" xmlns="http://www.w3.org/2000/svg">
<g id="react-icons/FaGlobeAsia" clip-path="url(#clip0_4175_339)">
<path id="Vector" d="M26 0.8125C12.089 0.8125 0.8125 12.089 0.8125 26C0.8125 39.911 12.089 51.1875 26 51.1875C39.911 51.1875 51.1875 39.911 51.1875 26C51.1875 12.089 39.911 0.8125 26 0.8125ZM24.8483 25.2109C24.5548 25.7004 24.0256 26 23.4548 26H23.4234C22.9927 26 22.5794 26.1716 22.2747 26.4763L21.6998 27.0512C21.383 27.368 21.383 27.883 21.6998 28.1998L22.2747 28.7747C22.5794 29.0794 22.751 29.4927 22.751 29.9234V30.875C22.751 31.7728 22.0238 32.5 21.126 32.5H20.5055C19.89 32.5 19.3273 32.1527 19.0521 31.6012L16.7548 27.0075C16.507 26.5119 15.8458 26.4042 15.4537 26.7962L13.4763 28.7727C13.1716 29.0773 12.7583 29.249 12.3277 29.249H5.97289C5.80125 28.1887 5.6875 27.1091 5.6875 26C5.6875 14.7997 14.7997 5.6875 26 5.6875C28.1846 5.6875 30.2859 6.04398 32.2593 6.68484L27.1649 10.598C26.6459 10.9444 26.6947 11.7213 27.2523 12.0006L28.3522 12.5501C28.9027 12.8253 29.25 13.388 29.25 14.0034V21.9375C29.25 22.3864 28.8864 22.75 28.4375 22.75H28.1267C27.819 22.75 27.5377 22.5763 27.4005 22.3011C27.2421 21.9842 26.7952 21.967 26.6124 22.2706L24.8483 25.2109ZM42.25 36.403C42.25 36.8337 42.0784 37.247 41.7737 37.5517L40.8017 38.5237C40.497 38.8284 40.0837 39 39.653 39H38.1134C37.6827 39 37.2694 38.8284 36.9647 38.5237L35.6434 37.2023C35.3114 36.8704 34.8991 36.6301 34.4467 36.5048C33.9943 36.3795 33.5171 36.3735 33.0616 36.4873L30.9014 37.0277C30.7724 37.0602 30.6404 37.0764 30.5073 37.0764H29.4572C29.0266 37.0764 28.6132 36.9048 28.3085 36.6001L27.0989 35.3905C26.9466 35.2379 26.8612 35.0312 26.8612 34.8156V33.7797C26.8612 33.4476 27.0634 33.149 27.3721 33.0251L31.3676 31.4265C31.5687 31.3462 31.7596 31.2416 31.9353 31.1167L34.3434 29.4013C34.4809 29.3033 34.6457 29.2508 34.8146 29.251H36.0425C36.3705 29.251 36.6671 29.448 36.793 29.7517L37.3364 31.0568C37.3673 31.1308 37.4193 31.194 37.486 31.2384C37.5527 31.2829 37.631 31.3066 37.7112 31.3066H38.0971C38.2779 31.3066 38.4373 31.1868 38.4871 31.0141L38.9137 29.5445C38.9645 29.3709 39.1229 29.252 39.3037 29.252H39.9191C40.1436 29.252 40.3254 29.4338 40.3254 29.6583V30.9715C40.3254 31.1868 40.4107 31.394 40.563 31.5463L41.7727 32.7559C42.0773 33.0606 42.249 33.474 42.249 33.9046V36.403H42.25Z" fill="#1C4AA8"/>
</g>
<defs>
<clipPath id="clip0_4175_339">
<rect width="52" height="52" fill="white"/>
</clipPath>
</defs>
</svg>
