<svg width="33" height="33" viewBox="0 0 33 33" fill="none" xmlns="http://www.w3.org/2000/svg">
<path fill-rule="evenodd" clip-rule="evenodd" d="M16.5 8.25C13.4624 8.25 11 10.7124 11 13.75C11 16.7875 13.4624 19.25 16.5 19.25C19.5375 19.25 22 16.7875 22 13.75C22 10.7124 19.5375 8.25 16.5 8.25ZM13.75 13.75C13.75 12.2312 14.9812 11 16.5 11C18.0188 11 19.25 12.2312 19.25 13.75C19.25 15.2688 18.0188 16.5 16.5 16.5C14.9812 16.5 13.75 15.2688 13.75 13.75Z" fill="#152C70"/>
<path fill-rule="evenodd" clip-rule="evenodd" d="M16.3838 2.75C14.4107 2.75 12.4729 3.28773 10.7818 4.30243C7.50872 6.26625 5.5 9.80665 5.5 13.6254C5.5 15.7712 6.13517 17.8691 7.32545 19.6545L13.2182 28.4936C13.9498 29.591 15.1812 30.25 16.5 30.25C17.8188 30.25 19.0502 29.591 19.7818 28.4937L25.6745 19.6545C26.8649 17.8691 27.5 15.7712 27.5 13.6254C27.5 9.80664 25.4913 6.26625 22.2182 4.30243C20.5271 3.28773 18.5893 2.75 16.6162 2.75H16.3838ZM12.1966 6.66053C13.4611 5.90186 14.9099 5.5 16.3838 5.5H16.6162C18.09 5.5 19.5389 5.90186 20.8033 6.66053C23.2496 8.1283 24.75 10.7744 24.75 13.6254C24.75 15.2284 24.2755 16.7953 23.3864 18.1291L17.4937 26.9681C17.2722 27.3005 16.8993 27.5 16.5 27.5C16.1007 27.5 15.7278 27.3005 15.5063 26.9681L9.61359 18.1291C8.72446 16.7953 8.25 15.2284 8.25 13.6254C8.25 10.7744 9.75036 8.1283 12.1966 6.66053Z" fill="#152C70"/>
</svg>
