<svg width="27" height="33" viewBox="0 0 27 33" fill="none" xmlns="http://www.w3.org/2000/svg">
<path id="Vector" d="M26.5205 16.8236C26.5205 15.0586 25.0852 13.6233 23.3202 13.6233H21.72V8.82277C21.72 4.4111 18.1308 0.821915 13.7192 0.821915C9.30748 0.821915 5.7183 4.4111 5.7183 8.82277V13.6233H4.11813C2.35314 13.6233 0.917786 15.0586 0.917786 16.8236V29.625C0.917786 31.39 2.35314 32.8253 4.11813 32.8253H23.3202C25.0852 32.8253 26.5205 31.39 26.5205 29.625V16.8236ZM8.91864 8.82277C8.91864 6.17609 11.0725 4.02226 13.7192 4.02226C16.3658 4.02226 18.5197 6.17609 18.5197 8.82277V13.6233H8.91864V8.82277Z" fill="#01438F"/>
</svg>
