<svg width="161" height="142" viewBox="0 0 161 142" fill="none" xmlns="http://www.w3.org/2000/svg">
<path d="M46.2437 36.9824C38.128 28.7563 38.128 15.3957 46.2437 7.1696C54.3594 -1.05653 67.4992 -1.05653 75.6149 7.1696L80.5009 12.1384L85.3869 7.1696C93.5026 -1.05653 106.642 -1.05653 114.758 7.1696C122.874 15.3957 122.874 28.7563 114.758 36.9824L86.7119 65.4702C85.0004 67.2093 82.7644 68.0651 80.5009 68.0651C78.2373 68.0651 76.0013 67.2093 74.2899 65.4702L46.2437 36.9824ZM157.849 92.0257C161.465 96.9393 160.416 103.84 155.502 107.457L120.555 133.212C114.096 137.96 106.311 140.527 98.2781 140.527H54.0006H9.83343C4.94744 140.527 1 136.579 1 131.693V114.026C1 109.141 4.94744 105.193 9.83343 105.193H19.9919L32.3863 95.2555C38.6525 90.2314 46.437 87.5262 54.4699 87.5262H76.0842H80.5009H98.1677C103.054 87.5262 107.001 91.4737 107.001 96.3596C107.001 101.246 103.054 105.193 98.1677 105.193H80.5009H76.0842C73.655 105.193 71.6674 107.181 71.6674 109.61C71.6674 112.039 73.655 114.026 76.0842 114.026H109.375L142.418 89.6794C147.331 86.0632 154.232 87.1121 157.849 92.0257ZM54.4423 105.193H54.1938C54.2766 105.193 54.3594 105.193 54.4423 105.193Z" fill="white" stroke="#01438F" stroke-width="1.06"/>
</svg>
