<svg width="48" height="48" viewBox="0 0 48 48" fill="none" xmlns="http://www.w3.org/2000/svg">
<g id="react-icons/BsPinAngleFill">
<path id="Vector" d="M29.4857 2.16602C29.6828 2.16567 29.8781 2.20417 30.0603 2.27932C30.2425 2.35448 30.4082 2.46481 30.5477 2.60402L45.3977 17.454C45.6789 17.7353 45.8369 18.1168 45.8369 18.5145C45.8369 18.9123 45.6789 19.2937 45.3977 19.575C43.9577 21.015 42.1817 21.339 40.8887 21.339C40.3577 21.339 39.8837 21.285 39.5087 21.222L30.1067 30.624C30.3532 31.6215 30.5137 32.6382 30.5867 33.663C30.7247 35.769 30.4907 38.724 28.4267 40.788C28.1454 41.0692 27.764 41.2272 27.3662 41.2272C26.9685 41.2272 26.587 41.0692 26.3057 40.788L17.8187 32.304L8.27272 41.85C7.68772 42.435 4.61572 44.556 4.03072 43.971C3.44572 43.386 5.56672 40.311 6.15172 39.729L15.6977 30.183L7.21372 21.696C6.93252 21.4147 6.77454 21.0333 6.77454 20.6355C6.77454 20.2378 6.93252 19.8563 7.21372 19.575C9.27772 17.511 12.2327 17.274 14.3387 17.415C15.3636 17.488 16.3803 17.6486 17.3777 17.895L26.7797 8.49602C26.7042 8.0388 26.6641 7.57642 26.6597 7.11302C26.6597 5.82302 26.9837 4.04702 28.4267 2.60402C28.7078 2.32361 29.0887 2.1661 29.4857 2.16602Z" fill="#1C4AA8"/>
</g>
</svg>
