<svg width="174" height="140" viewBox="0 0 174 140" fill="none" xmlns="http://www.w3.org/2000/svg">
<path d="M74.1 52.5781C69.37 52.5781 65.5 56.4481 65.5 61.1781V82.6781C65.5 85.0539 63.5758 86.9781 61.2 86.9781C58.8242 86.9781 56.9 85.0539 56.9 82.6781V62.1053C56.9 57.4317 58.1685 52.8415 60.5792 48.8317L81.4745 14.0044C83.9174 9.93017 82.6006 4.64923 78.5263 2.20361C74.6429 -0.126456 69.7328 1.04798 67.1582 4.67879C67.1044 4.74061 66.9916 4.73523 66.9459 4.80779L35.4323 52.0809C32.5942 56.3379 31.1 61.2856 31.1 66.3865V87.9483L6.88025 96.0216C5.16769 96.5913 3.67802 97.6859 2.62254 99.1499C1.56706 100.614 0.999373 102.373 1 104.178V129.978C1 132.886 3.28975 138.578 9.6 138.578C10.3229 138.578 11.0539 138.487 11.7661 138.301L59.9234 125.772C73.3368 121.937 82.7 109.524 82.7 95.5781V61.1781C82.7 56.4481 78.83 52.5781 74.1 52.5781ZM167.12 96.0431L142.9 87.9698V66.408C142.9 61.3071 141.406 56.3594 138.568 52.1024L107.054 4.83198C107.006 4.75942 106.896 4.76748 106.842 4.70298C104.267 1.07217 99.3571 -0.102268 95.4737 2.22779C91.3994 4.67073 90.0826 9.95436 92.5255 14.0286L113.421 48.8559C115.832 52.8657 117.1 57.4559 117.1 62.1295V82.7023C117.1 85.078 115.176 87.0023 112.8 87.0023C110.424 87.0023 108.5 85.078 108.5 82.7023V61.2023C108.5 56.4723 104.63 52.6023 99.9 52.6023C95.17 52.6023 91.3 56.4723 91.3 61.2023V95.6023C91.3 109.548 100.663 121.961 114.077 125.794L162.234 138.323C162.949 138.508 163.68 138.6 164.4 138.6C170.71 138.6 173 132.908 173 130V104.2C173 100.499 170.632 97.2148 167.12 96.0431Z" fill="white" stroke="#01438F"/>
</svg>
