<svg width="45" height="43" viewBox="0 0 45 43" fill="none" xmlns="http://www.w3.org/2000/svg">
<g id="react-icons/BsFillTelephoneFill" clip-path="url(#clip0_4172_184)">
<path id="Vector" fill-rule="evenodd" clip-rule="evenodd" d="M5.46907 1.97579C5.95304 1.51939 6.53419 1.16534 7.17401 0.937108C7.81382 0.708876 8.49768 0.611669 9.18028 0.651931C9.86288 0.692192 10.5286 0.869002 11.1334 1.17064C11.7382 1.47229 12.2682 1.89187 12.6883 2.40159L17.6532 8.42558C18.5632 9.53058 18.884 10.97 18.5245 12.3284L17.0115 18.0493C16.9338 18.3457 16.9383 18.6559 17.0245 18.9501C17.1108 19.2443 17.2758 19.5126 17.5038 19.729L24.2998 26.1475C24.5292 26.3632 24.8138 26.5194 25.1258 26.6008C25.4379 26.6823 25.7669 26.6863 26.0811 26.6125L32.1358 25.1835C32.8457 25.0169 33.5863 25.0044 34.302 25.1469C35.0178 25.2894 35.69 25.5833 36.2682 26.0064L42.6465 30.6929C44.9395 32.3778 45.1497 35.5779 43.0974 37.5136L40.2374 40.2147C38.1905 42.1479 35.1314 42.9969 32.2796 42.0486C24.9793 39.6259 18.3517 35.6791 12.8902 30.5022C7.40904 25.3448 3.23016 19.0863 0.664573 12.1925C-0.336709 9.50185 0.562232 6.61002 2.60905 4.67691L5.46907 1.97579Z" fill="#1C4AA8"/>
</g>
<defs>
<clipPath id="clip0_4172_184">
<rect width="44.2556" height="41.7969" fill="white" transform="translate(0.255859 0.640137)"/>
</clipPath>
</defs>
</svg>
